<svg width="26" height="24" viewBox="0 0 26 24" fill="none" xmlns="http://www.w3.org/2000/svg">
<g id="icon_cart">
<path id="Vector" d="M8.47128 17.938C6.79718 17.938 5.44019 19.295 5.44019 20.9691C5.44019 22.643 6.79718 24 8.47128 24C10.1452 24 11.5022 22.643 11.5022 20.9691C11.5004 19.2959 10.1445 17.9398 8.47128 17.938ZM8.47128 22.8857C7.41267 22.8857 6.55451 22.0275 6.55451 20.9691C6.55451 19.9105 7.41267 19.0524 8.47128 19.0524C9.52967 19.0524 10.3878 19.9105 10.3878 20.9691C10.3878 22.0275 9.52967 22.8857 8.47128 22.8857Z" fill="#515151"/>
<path id="Vector_2" d="M24.991 5.21819H5.31754L4.91643 2.97278C4.66919 1.59054 3.58577 0.509297 2.20309 0.264885L0.74881 0.00872065C0.445635 -0.0452545 0.156389 0.156935 0.102414 0.459892C0.0486564 0.763067 0.250628 1.05231 0.553803 1.10629L2.01353 1.36245C2.93459 1.52568 3.65563 2.24673 3.81886 3.16779L5.79113 14.2943C6.02401 15.6256 7.18078 16.5967 8.53233 16.5954H20.2327C21.462 16.5991 22.5476 15.7945 22.9017 14.6175L25.5204 5.93685C25.5689 5.76752 25.5382 5.58514 25.4368 5.44106C25.3308 5.30155 25.166 5.21928 24.991 5.21819ZM21.8374 14.2886C21.6272 14.9955 20.9758 15.4791 20.2384 15.4754H8.53799C7.7264 15.4776 7.03169 14.8937 6.89436 14.0936L5.51821 6.32686H24.2443L21.8374 14.2886Z" fill="#515151"/>
<path id="Vector_3" d="M20.1715 17.938C18.4974 17.938 17.1404 19.295 17.1404 20.9691C17.1404 22.643 18.4974 24 20.1715 24C21.8454 24 23.2024 22.643 23.2024 20.9691C23.2006 19.2959 21.8447 17.9398 20.1715 17.938ZM20.1715 22.8857C19.1129 22.8857 18.2547 22.0275 18.2547 20.9691C18.2547 19.9105 19.1129 19.0524 20.1715 19.0524C21.2299 19.0524 22.088 19.9105 22.088 20.9691C22.088 22.0275 21.2299 22.8857 20.1715 22.8857Z" fill="#515151"/>
</g>
</svg>
